<?xml version="1.0" standalone="no"?><!DOCTYPE svg PUBLIC "-//W3C//DTD SVG 1.1//EN" "http://www.w3.org/Graphics/SVG/1.1/DTD/svg11.dtd"><svg class="icon" width="200px" height="200.00px" viewBox="0 0 1024 1024" version="1.1" xmlns="http://www.w3.org/2000/svg"><path fill="#333333" d="M490.48 397.322c0 52.617-42.658 95.274-95.276 95.274H159.662c-52.618 0-95.274-42.658-95.274-95.274V161.78c0-52.618 42.658-95.275 95.274-95.275h235.542c52.618 0 95.275 42.657 95.275 95.275v235.542zM435.5 161.78c0-22.256-18.04-40.296-40.296-40.296H159.662c-22.255 0-40.295 18.04-40.295 40.296v235.542c0 22.255 18.04 40.295 40.295 40.295h235.542c22.255 0 40.296-18.04 40.296-40.295V161.78z"  /><path fill="#333333" d="M174.346 286.423c-7.597 0-13.745-6.148-13.745-13.746v-24.765c0-38.067 25.396-71.449 60.322-71.449h85.638c7.583 0 13.745 6.148 13.745 13.745 0 7.597-6.162 13.745-13.745 13.745h-85.638c-21.435 0-32.832 23.637-32.832 43.96v24.764c0 7.598-6.16 13.746-13.745 13.746zM169.112 333.564c-3.584 0-7.155-1.516-9.758-3.987-2.483-2.604-3.987-6.188-3.987-9.759 0-3.57 1.503-7.14 3.987-9.758 5.222-5.088 14.282-5.088 19.516 0 2.47 2.617 3.987 6.188 3.987 9.758 0 3.57-1.516 7.155-3.987 9.624-2.617 2.606-6.188 4.122-9.758 4.122zM957.807 397.322c0 52.617-42.66 95.274-95.276 95.274H626.989c-52.618 0-95.274-42.658-95.274-95.274V161.78c0-52.618 42.657-95.275 95.274-95.275h235.542c52.617 0 95.276 42.657 95.276 95.275v235.542z m-54.98-235.542c0-22.256-18.04-40.296-40.296-40.296H626.989c-22.254 0-40.295 18.04-40.295 40.296v235.542c0 22.255 18.04 40.295 40.295 40.295h235.542c22.256 0 40.296-18.04 40.296-40.295V161.78zM490.48 864.647c0 52.617-42.658 95.275-95.276 95.275H159.662c-52.618 0-95.274-42.659-95.274-95.275v-235.54c0-52.618 42.658-95.275 95.274-95.275h235.542c52.618 0 95.275 42.658 95.275 95.274v235.54z m-54.98-235.54c0-22.256-18.04-40.297-40.296-40.297H159.662c-22.255 0-40.295 18.041-40.295 40.296v235.542c0 22.255 18.04 40.296 40.295 40.296h235.542c22.255 0 40.296-18.041 40.296-40.296V629.106zM957.807 864.647c0 52.617-42.66 95.275-95.276 95.275H626.989c-52.618 0-95.274-42.659-95.274-95.275v-235.54c0-52.618 42.657-95.275 95.274-95.275h235.542c52.617 0 95.276 42.658 95.276 95.274v235.54z m-54.98-235.54c0-22.256-18.04-40.297-40.296-40.297H626.989c-22.254 0-40.295 18.041-40.295 40.296v235.542c0 22.255 18.04 40.296 40.295 40.296h235.542c22.256 0 40.296-18.041 40.296-40.296V629.106z"  /></svg>