<?xml version="1.0" standalone="no"?><!DOCTYPE svg PUBLIC "-//W3C//DTD SVG 1.1//EN" "http://www.w3.org/Graphics/SVG/1.1/DTD/svg11.dtd"><svg class="icon" width="200px" height="200.00px" viewBox="0 0 1024 1024" version="1.1" xmlns="http://www.w3.org/2000/svg"><path fill="#333333" d="M426.666667 597.333333l42.666666 85.333334-64 234.666666h213.333334L554.666667 682.666667l42.666666-85.333334h-170.666666z"  /><path fill="#333333" d="M853.333333 938.666667H170.666667c-46.933333 0-85.333333-34.133333-85.333334-81.066667v-68.266667c4.266667-51.2 34.133333-98.133333 76.8-123.733333 59.733333-38.4 128-64 196.266667-76.8L426.666667 853.333333h170.666666l64-264.533333c72.533333 12.8 136.533333 38.4 196.266667 76.8 42.666667 25.6 72.533333 72.533333 76.8 123.733333V853.333333c4.266667 46.933333-34.133333 85.333333-81.066667 85.333334z m-341.333333-426.666667c-119.466667 0-213.333333-93.866667-213.333333-213.333333s93.866667-213.333333 213.333333-213.333334 213.333333 93.866667 213.333333 213.333334-93.866667 213.333333-213.333333 213.333333z"  /></svg>