<?xml version="1.0" standalone="no"?><!DOCTYPE svg PUBLIC "-//W3C//DTD SVG 1.1//EN" "http://www.w3.org/Graphics/SVG/1.1/DTD/svg11.dtd"><svg class="icon" width="200px" height="200.00px" viewBox="0 0 1024 1024" version="1.1" xmlns="http://www.w3.org/2000/svg"><path fill="#333333" d="M896 938.666667h-21.333333c-25.6 0-42.666667-17.066667-42.666667-42.666667v-106.666667s0-25.6-38.4-55.466666c-46.933333-25.6-98.133333-42.666667-153.6-46.933334l25.6-98.133333c72.533333 12.8 136.533333 38.4 196.266667 76.8 42.666667 25.6 72.533333 72.533333 76.8 123.733333V896c0 25.6-17.066667 42.666667-42.666667 42.666667zM149.333333 938.666667H128c-25.6 0-42.666667-17.066667-42.666667-42.666667v-106.666667c4.266667-51.2 34.133333-98.133333 76.8-123.733333 59.733333-38.4 128-64 196.266667-76.8l25.6 102.4c-55.466667 4.266667-106.666667 21.333333-153.6 46.933333-38.4 25.6-38.4 51.2-38.4 51.2V896c0 25.6-17.066667 42.666667-42.666667 42.666667zM512 512c-119.466667 0-213.333333-93.866667-213.333333-213.333333s93.866667-213.333333 213.333333-213.333334 213.333333 93.866667 213.333333 213.333334-93.866667 213.333333-213.333333 213.333333z m0-320c-59.733333 0-106.666667 46.933333-106.666667 106.666667s46.933333 106.666667 106.666667 106.666666 106.666667-46.933333 106.666667-106.666666-46.933333-106.666667-106.666667-106.666667zM426.666667 597.333333l42.666666 85.333334-64 149.333333L512 938.666667l106.666667-106.666667L554.666667 682.666667l42.666666-85.333334h-170.666666z" /></svg>