<?xml version="1.0" standalone="no"?><!DOCTYPE svg PUBLIC "-//W3C//DTD SVG 1.1//EN" "http://www.w3.org/Graphics/SVG/1.1/DTD/svg11.dtd"><svg class="icon" width="200px" height="200.00px" viewBox="0 0 1024 1024" version="1.1" xmlns="http://www.w3.org/2000/svg"><path fill="#333333" d="M640 938.666667c-46.933333 0-85.333333-38.4-85.333333-85.333334v-213.333333c0-46.933333 38.4-85.333333 85.333333-85.333333h213.333333c46.933333 0 85.333333 38.4 85.333334 85.333333v213.333333c0 46.933333-38.4 85.333333-85.333334 85.333334h-213.333333zM170.666667 938.666667c-46.933333 0-85.333333-38.4-85.333334-85.333334v-213.333333c0-46.933333 38.4-85.333333 85.333334-85.333333h213.333333c46.933333 0 85.333333 38.4 85.333333 85.333333v213.333333c0 46.933333-38.4 85.333333-85.333333 85.333334H170.666667z m473.6-409.6l-149.333334-149.333334c-34.133333-34.133333-34.133333-85.333333 0-119.466666l149.333334-149.333334c34.133333-34.133333 85.333333-34.133333 119.466666 0L917.333333 256c34.133333 34.133333 34.133333 85.333333 0 119.466667L768 529.066667c-17.066667 17.066667-38.4 25.6-59.733333 25.6-25.6 0-46.933333-8.533333-64-25.6zM170.666667 469.333333c-46.933333 0-85.333333-38.4-85.333334-85.333333V170.666667c0-46.933333 38.4-85.333333 85.333334-85.333334h213.333333c46.933333 0 85.333333 38.4 85.333333 85.333334v213.333333c0 46.933333-38.4 85.333333-85.333333 85.333333H170.666667z" /></svg>